<svg xmlns="http://www.w3.org/2000/svg" width="127.401" height="35" viewBox="0 0 127.401 35">
  <g id="Untitled" transform="translate(-0.988 -1.201)">
    <path id="Path_97" d="M38.022,20a1.4,1.4,0,0,1-.993-.416,1.386,1.386,0,0,1,0-1.969A1.4,1.4,0,1,1,38.022,20Zm-2.83,0a1.4,1.4,0,0,1-.993-.416,1.384,1.384,0,0,1,0-1.969A1.4,1.4,0,1,1,35.192,20Zm-28.5-.065a8.011,8.011,0,0,1-4.856-1.65A5.922,5.922,0,0,1,.012,13.615V8.969H2.155v4.2a4.3,4.3,0,0,0,1.31,3.571A6.189,6.189,0,0,0,6.9,17.777c.146,0,.294-.005.44-.016H7.49a11.391,11.391,0,0,0,2.128-.2,3.79,3.79,0,0,0,1.574-.682A2.792,2.792,0,0,0,12.1,15.54a6.78,6.78,0,0,0,.291-2.166V8.924h2.143V13.4a8.016,8.016,0,0,1-.489,2.966,5.032,5.032,0,0,1-1.416,2.021,5.83,5.83,0,0,1-2.276,1.156,11.7,11.7,0,0,1-2.916.369H7.289C7.092,19.926,6.891,19.934,6.693,19.934Zm68.534-4.492-.191,0H71.012v-.015H43.886q-.065,0-.129,0a2.65,2.65,0,0,1-1.539-.489,2.325,2.325,0,0,1-.846-1.22,2.361,2.361,0,0,1-1.5,1.391,8.557,8.557,0,0,1-2.309.317l-.192,0H20.083a6.56,6.56,0,0,1-1.454-.164,2.65,2.65,0,0,1-1.958-1.706,4.742,4.742,0,0,1-.278-1.746V.068h2.17V11.227a2.664,2.664,0,0,0,.345,1.562c.227.3.743.459,1.534.459h3.44a7.388,7.388,0,0,1-.5-1.22,5.1,5.1,0,0,1-.212-1.536,6.18,6.18,0,0,1,.345-2.022,5.4,5.4,0,0,1,1-1.774,5.138,5.138,0,0,1,1.626-1.26,4.942,4.942,0,0,1,2.133-.486h.1c.063,0,.126,0,.189,0a4.826,4.826,0,0,1,2.193.529,4.273,4.273,0,0,1,1.47,1.339,5.157,5.157,0,0,1,.753,1.8,9.17,9.17,0,0,1,.211,1.931v2.7h3.858a9.5,9.5,0,0,0,1.011-.053,1.737,1.737,0,0,0,.754-.248,1.156,1.156,0,0,0,.449-.578,2.988,2.988,0,0,0,.148-1.036V6.785h2.17v3.577a7.1,7.1,0,0,0,.094,1.194,2.161,2.161,0,0,0,.356.906,1.79,1.79,0,0,0,.715.578,2.674,2.674,0,0,0,1.049.212h3.1a7.513,7.513,0,0,1-.5-1.22,5.1,5.1,0,0,1-.212-1.536,6.191,6.191,0,0,1,.344-2.021A5.412,5.412,0,0,1,47.54,6.7a5.127,5.127,0,0,1,1.627-1.26,4.93,4.93,0,0,1,2.127-.486H51.4c.064,0,.129,0,.193,0a4.819,4.819,0,0,1,2.189.529,4.283,4.283,0,0,1,1.469,1.339,5.168,5.168,0,0,1,.754,1.8,9.243,9.243,0,0,1,.212,1.931v2.7H68.84a7.848,7.848,0,0,0-.449-2.835,5.077,5.077,0,0,0-1.218-1.877,4.683,4.683,0,0,0-1.787-1.051,7.057,7.057,0,0,0-2.131-.329H63.2a9.887,9.887,0,0,0-1.627.144,14.162,14.162,0,0,0-1.417.3V5.5c.358-.108.829-.227,1.4-.356a8.668,8.668,0,0,1,1.846-.2h.06l.211,0a8.068,8.068,0,0,1,3.2.659,6.581,6.581,0,0,1,2.369,1.8,7.453,7.453,0,0,1,1.391,2.659,11.784,11.784,0,0,1,.476,3.19h4.46l.138-.014a1.724,1.724,0,0,0,.745-.247,1.138,1.138,0,0,0,.445-.572,2.907,2.907,0,0,0,.144-1.026V6.71h2.146v3.738c0,.218.006.442.013.679A5.09,5.09,0,0,1,78.6,14.4a2.186,2.186,0,0,1-.87.655h-.007a2.11,2.11,0,0,1-.208.075A8.447,8.447,0,0,1,75.227,15.442ZM28.074,7.021a2.747,2.747,0,0,0-2.053.923,3.255,3.255,0,0,0-.793,2.2,2.814,2.814,0,0,0,.954,2.351,3.67,3.67,0,0,0,2.215.75l.113,0h2.54V10.623a7.052,7.052,0,0,0-.119-1.274,3.291,3.291,0,0,0-.437-1.156,2.511,2.511,0,0,0-.873-.841,2.717,2.717,0,0,0-1.295-.33l-.1,0C28.173,7.023,28.123,7.021,28.074,7.021Zm23.022,0a2.747,2.747,0,0,0-2.053.923,3.255,3.255,0,0,0-.793,2.2A2.822,2.822,0,0,0,49.2,12.5a3.681,3.681,0,0,0,2.22.75l.11,0h2.54V10.623a6.958,6.958,0,0,0-.12-1.274,3.3,3.3,0,0,0-.437-1.156,2.511,2.511,0,0,0-.873-.841,2.717,2.717,0,0,0-1.295-.33l-.1,0C51.2,7.023,51.145,7.021,51.1,7.021ZM7.369,11.043a1.4,1.4,0,0,1-.991-.408,1.384,1.384,0,0,1,0-1.969,1.4,1.4,0,1,1,.991,2.377Zm55.7-8.228a1.4,1.4,0,0,1-.992-.407,1.339,1.339,0,0,1-.411-.985,1.343,1.343,0,0,1,.411-.985,1.415,1.415,0,0,1,1.985,0,1.381,1.381,0,0,1,.41.985,1.394,1.394,0,0,1-1.4,1.393Zm14.987-.026a1.407,1.407,0,0,1-.992-.406,1.345,1.345,0,0,1-.41-.985,1.339,1.339,0,0,1,.41-.985,1.413,1.413,0,0,1,1.985,0,1.376,1.376,0,0,1,.41.985,1.394,1.394,0,0,1-1.4,1.391Zm-2.831,0a1.408,1.408,0,0,1-.992-.406,1.34,1.34,0,0,1-.41-.988,1.336,1.336,0,0,1,.41-.983,1.413,1.413,0,0,1,1.985,0,1.376,1.376,0,0,1,.41.985,1.394,1.394,0,0,1-.41.985A1.408,1.408,0,0,1,75.226,2.788Zm-24.461,0a1.407,1.407,0,0,1-.993-.406,1.338,1.338,0,0,1-.41-.985,1.338,1.338,0,0,1,.41-.985,1.4,1.4,0,0,1,2.395.985,1.393,1.393,0,0,1-1.4,1.391Zm-23.022,0a1.407,1.407,0,0,1-.993-.406,1.338,1.338,0,0,1-.41-.985,1.338,1.338,0,0,1,.41-.985,1.4,1.4,0,0,1,2.395.985,1.393,1.393,0,0,1-1.4,1.391Z" transform="translate(0.988 15.829)" fill="#4a4a4a"/>
    <g id="Group_4700" data-name="Group 4700" transform="translate(1550.957 -671.799)">
      <path id="Path_7055" data-name="Path 7055" d="M491.73,418.578a3.227,3.227,0,1,0,3.226-3.227,3.227,3.227,0,0,0-3.226,3.227" transform="translate(-1943.461 274.872)" fill="#5a595c"/>
      <path id="Path_7056" data-name="Path 7056" d="M449.389,322.664h-.831a17.755,17.755,0,0,0-16.806,12.03,14.817,14.817,0,0,0-.539,3.095c-.024,4.77,0,19.865,0,19.865s15.628.015,19.361,0h1.477a9.274,9.274,0,0,0,2.044-.329,17.838,17.838,0,0,0,12.213-16.909c0-.541-.069-6.886-.065-10.088h5.368V322.66Zm-10.807,17.678a9.978,9.978,0,1,1,9.976,10.054s-6.578.013-9.976.013V340.342" transform="translate(-1894.18 350.34)" fill="#e54e63"/>
    </g>
  </g>
</svg>
